<svg id="visual" viewBox="0 0 900 600" width="900" height="600" xmlns="http://www.w3.org/2000/svg" xmlns:xlink="http://www.w3.org/1999/xlink" version="1.1"><rect x="0" y="0" width="900" height="600" fill="#F7F7F7"></rect><path d="M0 354L21.5 363.2C43 372.3 86 390.7 128.8 405.3C171.7 420 214.3 431 257.2 427.2C300 423.3 343 404.7 385.8 392C428.7 379.3 471.3 372.7 514.2 369C557 365.3 600 364.7 642.8 375.7C685.7 386.7 728.3 409.3 771.2 408.3C814 407.3 857 382.7 878.5 370.3L900 358L900 601L878.5 601C857 601 814 601 771.2 601C728.3 601 685.7 601 642.8 601C600 601 557 601 514.2 601C471.3 601 428.7 601 385.8 601C343 601 300 601 257.2 601C214.3 601 171.7 601 128.8 601C86 601 43 601 21.5 601L0 601Z" fill="#ff4d4f"></path><path d="M0 423L21.5 431.7C43 440.3 86 457.7 128.8 465.7C171.7 473.7 214.3 472.3 257.2 470.8C300 469.3 343 467.7 385.8 456.7C428.7 445.7 471.3 425.3 514.2 419.5C557 413.7 600 422.3 642.8 427.2C685.7 432 728.3 433 771.2 439.2C814 445.3 857 456.7 878.5 462.3L900 468L900 601L878.5 601C857 601 814 601 771.2 601C728.3 601 685.7 601 642.8 601C600 601 557 601 514.2 601C471.3 601 428.7 601 385.8 601C343 601 300 601 257.2 601C214.3 601 171.7 601 128.8 601C86 601 43 601 21.5 601L0 601Z" fill="#ff6e3b"></path><path d="M0 472L21.5 474C43 476 86 480 128.8 475.3C171.7 470.7 214.3 457.3 257.2 452.8C300 448.3 343 452.7 385.8 463.3C428.7 474 471.3 491 514.2 494.5C557 498 600 488 642.8 485.7C685.7 483.3 728.3 488.7 771.2 493.5C814 498.3 857 502.7 878.5 504.8L900 507L900 601L878.5 601C857 601 814 601 771.2 601C728.3 601 685.7 601 642.8 601C600 601 557 601 514.2 601C471.3 601 428.7 601 385.8 601C343 601 300 601 257.2 601C214.3 601 171.7 601 128.8 601C86 601 43 601 21.5 601L0 601Z" fill="#ff8d29"></path><path d="M0 493L21.5 495.7C43 498.3 86 503.7 128.8 509.2C171.7 514.7 214.3 520.3 257.2 520.5C300 520.7 343 515.3 385.8 512.7C428.7 510 471.3 510 514.2 514.5C557 519 600 528 642.8 530.3C685.7 532.7 728.3 528.3 771.2 520.3C814 512.3 857 500.7 878.5 494.8L900 489L900 601L878.5 601C857 601 814 601 771.2 601C728.3 601 685.7 601 642.8 601C600 601 557 601 514.2 601C471.3 601 428.7 601 385.8 601C343 601 300 601 257.2 601C214.3 601 171.7 601 128.8 601C86 601 43 601 21.5 601L0 601Z" fill="#ffac15"></path><path d="M0 526L21.5 528.2C43 530.3 86 534.7 128.8 538.3C171.7 542 214.3 545 257.2 549.5C300 554 343 560 385.8 557.3C428.7 554.7 471.3 543.3 514.2 537.2C557 531 600 530 642.8 533.7C685.7 537.3 728.3 545.7 771.2 545C814 544.3 857 534.7 878.5 529.8L900 525L900 601L878.5 601C857 601 814 601 771.2 601C728.3 601 685.7 601 642.8 601C600 601 557 601 514.2 601C471.3 601 428.7 601 385.8 601C343 601 300 601 257.2 601C214.3 601 171.7 601 128.8 601C86 601 43 601 21.5 601L0 601Z" fill="#ffcc00"></path></svg>